<svg width="38" height="46" viewBox="0 0 38 46" fill="none" xmlns="http://www.w3.org/2000/svg">
<g clip-path="url(#clip0_96_1949)">
<path d="M16.4648 32.6651C17.5236 32.7067 17.8572 31.4726 17.8173 30.9561C17.5201 31.379 17.2228 31.8018 16.5686 31.8726C15.9143 31.9435 15.4978 31.5328 15.2002 31.2395L15.2002 31.2395C15.2301 31.6269 15.406 32.6235 16.4648 32.6651Z" fill="#2E6930"/>
<path d="M21.1952 26.4315C20.216 25.9528 19.5381 26.97 19.4225 27.4703C19.8261 27.1978 20.2296 26.9252 20.8633 27.1306C21.497 27.336 21.7655 27.8936 21.9572 28.2918L21.9572 28.2919C22.044 27.9166 22.1744 26.9102 21.1952 26.4315Z" fill="#2E6930"/>
<path d="M20.8739 13.3288C19.8208 13.4657 19.6387 14.7434 19.7401 15.248C19.9836 14.7794 20.2271 14.3109 20.8662 14.1307C21.5053 13.9506 21.9669 14.287 22.2966 14.5273L22.2966 14.5273C22.2206 14.1489 21.9269 13.1919 20.8739 13.3288Z" fill="#2E6930"/>
<path d="M13.1126 16.2612C12.6778 17.4051 13.515 18.2395 13.9336 18.3921C13.7162 17.9058 13.4989 17.4196 13.6922 16.676C13.8855 15.9325 14.3646 15.6322 14.7068 15.4178L14.7068 15.4178C14.3928 15.3033 13.5475 15.1173 13.1126 16.2612Z" fill="#2E6930"/>
<path d="M16.4862 20.6485C15.5102 21.1361 15.6441 22.4221 15.8631 22.8713C15.9833 22.3399 16.1035 21.8085 16.6725 21.4195C17.2415 21.0305 17.765 21.1966 18.1389 21.3153L18.139 21.3153C17.9747 20.9784 17.4623 20.1608 16.4862 20.6485Z" fill="#2E6930"/>
<path d="M24.6772 19.479C24.2654 18.3231 23.1794 18.4817 22.8001 18.741C23.2489 18.8834 23.6976 19.0258 24.0261 19.6996C24.3546 20.3733 24.2143 20.9933 24.1141 21.4361L24.1141 21.4362C24.3986 21.2417 25.089 20.6349 24.6772 19.479Z" fill="#2E6930"/>
<path d="M11.7144 26.9946C12.2774 28.0573 13.3278 27.6946 13.6671 27.3665C13.2049 27.3112 12.7427 27.2559 12.3272 26.6532C11.9117 26.0505 11.9663 25.412 12.0052 24.9558L12.0052 24.9558C11.7507 25.2018 11.1514 25.9318 11.7144 26.9946Z" fill="#2E6930"/>
<path d="M23.6946 33.2868C24.4196 32.3721 23.8566 31.261 23.5025 30.9557C23.5747 31.4992 23.6469 32.0427 23.2602 32.6716C22.8734 33.3005 22.338 33.4002 21.9556 33.4714L21.9555 33.4714C22.2211 33.7004 22.9696 34.2015 23.6946 33.2868Z" fill="#2E6930"/>
<rect x="27.0225" y="16" width="10.1333" height="1" fill="#2E6930"/>
<path fill-rule="evenodd" clip-rule="evenodd" d="M27.0223 15H36.8191C34.1347 6.24141 27.1695 0 19 0C8.50659 0 0 10.2975 0 23C0 35.7025 8.50659 46 19 46C23.2772 46 27.2244 44.2891 30.3998 41.4018V46H37.9998V29H38V25H25.3333V29H27.7604C27.8298 29.3196 27.8668 29.6547 27.8668 30C27.8668 31.8711 26.7818 33.4422 25.3163 33.8791C25.1567 35.6338 23.902 37 22.3779 37C21.6871 37 21.0517 36.7194 20.5485 36.2491C19.9938 36.7217 19.3133 37 18.5779 37C17.6442 37 16.7991 36.5514 16.1877 35.8263C15.8753 35.9393 15.5437 36 15.2001 36C13.3346 36 11.8223 34.2091 11.8223 32C11.8223 31.958 11.8229 31.9162 11.824 31.8745C10.3663 31.4311 9.289 29.8645 9.289 28C9.289 27.5114 9.36297 27.0433 9.49838 26.6105C8.8455 25.8024 8.44444 24.7067 8.44444 23.5C8.44444 22.2933 8.8455 21.1976 9.49837 20.3895C9.36297 19.9567 9.289 19.4886 9.289 19C9.289 17.1355 10.3663 15.5689 11.824 15.1255C11.8229 15.0838 11.8223 15.042 11.8223 15C11.8223 12.7909 13.3346 11 15.2001 11C15.5437 11 15.8753 11.0607 16.1877 11.1737C16.7991 10.4486 17.6442 10 18.5779 10C19.2491 10 19.8747 10.2319 20.4005 10.6317C20.8297 10.2358 21.3694 10 21.9557 10C23.0602 10 23.9996 10.837 24.3462 12.0047C24.3935 12.0016 24.4411 12 24.489 12C25.8881 12 27.0223 13.3431 27.0223 15ZM20.7391 29.9258C20.8651 29.9047 20.99 29.8792 21.1136 29.8494C21.112 29.8994 21.1112 29.9496 21.1112 30C21.1112 30.1113 21.1151 30.2215 21.1226 30.3305L21.1021 30.342C20.99 30.1928 20.8686 30.0537 20.7391 29.9258Z" fill="#2E6930"/>
</g>
<defs>
<clipPath id="clip0_96_1949">
<rect width="38" height="46" fill="white"/>
</clipPath>
</defs>
</svg>
