<svg width="245" height="50" viewBox="0 0 245 50" fill="none" xmlns="http://www.w3.org/2000/svg">
<rect x="184" y="32" width="18" height="6" fill="#2E6930"/>
<path fill-rule="evenodd" clip-rule="evenodd" d="M45 19.2085H52V24.1354C53.2249 21.9384 55.4537 20.469 58 20.469C58.695 20.469 59.3663 20.5785 60 20.7823V29.2953H57C54.7909 29.2953 53 31.0861 53 33.2953V48.2083H60V48.2085H45V19.2085Z" fill="#2E6930"/>
<path fill-rule="evenodd" clip-rule="evenodd" d="M162 19H169V23.9269C170.225 21.7299 172.454 20.2605 175 20.2605C175.695 20.2605 176.366 20.37 177 20.5738V29.0868H174C171.791 29.0868 170 30.8777 170 33.0868V47.9998H177V48H162V19Z" fill="#2E6930"/>
<path fill-rule="evenodd" clip-rule="evenodd" d="M73.5 48C79.8513 48 85 41.5081 85 33.5C85 25.4919 79.8513 19 73.5 19C67.1487 19 62 25.4919 62 33.5C62 41.5081 67.1487 48 73.5 48ZM73.5 39.5417C75.9853 39.5417 78 36.8367 78 33.5C78 30.1633 75.9853 27.4583 73.5 27.4583C71.0147 27.4583 69 30.1633 69 33.5C69 36.8367 71.0147 39.5417 73.5 39.5417Z" fill="#2E6930"/>
<path fill-rule="evenodd" clip-rule="evenodd" d="M109.841 35.9165C108.929 42.7744 104.198 48 98.5 48C92.1487 48 87 41.5081 87 33.5C87 25.4919 92.1487 19 98.5 19C103.858 19 108.361 23.621 109.638 29.8748H102.1C101.279 28.4075 99.9722 27.4583 98.5 27.4583C96.0147 27.4583 94 30.1633 94 33.5C94 36.8367 96.0147 39.5417 98.5 39.5417C100.345 39.5417 101.931 38.0504 102.626 35.9165H109.841Z" fill="#2E6930"/>
<path d="M19.4648 34.6651C20.5236 34.7067 20.8572 33.4726 20.8173 32.9561C20.5201 33.379 20.2228 33.8018 19.5686 33.8726C18.9143 33.9435 18.4978 33.5328 18.2002 33.2395L18.2002 33.2395C18.2301 33.6269 18.406 34.6235 19.4648 34.6651Z" fill="#2E6930"/>
<path d="M24.1952 28.4315C23.216 27.9528 22.5381 28.97 22.4225 29.4703C22.8261 29.1978 23.2296 28.9252 23.8633 29.1306C24.497 29.336 24.7655 29.8936 24.9572 30.2918L24.9572 30.2919C25.044 29.9166 25.1744 28.9102 24.1952 28.4315Z" fill="#2E6930"/>
<path d="M23.8739 15.3288C22.8208 15.4657 22.6387 16.7434 22.7401 17.248C22.9836 16.7794 23.2271 16.3109 23.8662 16.1307C24.5053 15.9506 24.9669 16.287 25.2966 16.5273L25.2966 16.5273C25.2206 16.1489 24.9269 15.1919 23.8739 15.3288Z" fill="#2E6930"/>
<path d="M16.1126 18.2612C15.6778 19.4051 16.515 20.2395 16.9336 20.3921C16.7162 19.9058 16.4989 19.4196 16.6922 18.676C16.8855 17.9325 17.3646 17.6322 17.7068 17.4178L17.7068 17.4178C17.3928 17.3033 16.5475 17.1173 16.1126 18.2612Z" fill="#2E6930"/>
<path d="M19.4862 22.6485C18.5102 23.1361 18.6441 24.4221 18.8631 24.8713C18.9833 24.3399 19.1035 23.8085 19.6725 23.4195C20.2415 23.0305 20.765 23.1966 21.1389 23.3153L21.139 23.3153C20.9747 22.9784 20.4623 22.1608 19.4862 22.6485Z" fill="#2E6930"/>
<path d="M27.6772 21.479C27.2654 20.3231 26.1794 20.4817 25.8001 20.741C26.2489 20.8834 26.6976 21.0258 27.0261 21.6996C27.3546 22.3733 27.2143 22.9933 27.1141 23.4361L27.1141 23.4362C27.3986 23.2417 28.089 22.6349 27.6772 21.479Z" fill="#2E6930"/>
<path d="M14.7144 28.9946C15.2774 30.0573 16.3278 29.6946 16.6671 29.3665C16.2049 29.3112 15.7427 29.2559 15.3272 28.6532C14.9117 28.0505 14.9663 27.412 15.0052 26.9558L15.0052 26.9558C14.7507 27.2018 14.1514 27.9318 14.7144 28.9946Z" fill="#2E6930"/>
<path d="M26.6946 35.2868C27.4196 34.3721 26.8566 33.261 26.5025 32.9557C26.5747 33.4992 26.6469 34.0427 26.2602 34.6716C25.8734 35.3005 25.338 35.4002 24.9556 35.4714L24.9555 35.4714C25.2211 35.7004 25.9696 36.2015 26.6946 35.2868Z" fill="#2E6930"/>
<rect x="30.0225" y="18" width="10.1333" height="1" fill="#2E6930"/>
<path fill-rule="evenodd" clip-rule="evenodd" d="M30.0223 17H39.8191C37.1347 8.24141 30.1695 2 22 2C11.5066 2 3 12.2975 3 25C3 37.7025 11.5066 48 22 48C26.2772 48 30.2244 46.2891 33.3998 43.4018V48H40.9998V31H41V27H28.3333V31H30.7604C30.8298 31.3196 30.8668 31.6547 30.8668 32C30.8668 33.8711 29.7818 35.4422 28.3163 35.8791C28.1567 37.6338 26.902 39 25.3779 39C24.6871 39 24.0517 38.7194 23.5485 38.2491C22.9938 38.7217 22.3133 39 21.5779 39C20.6442 39 19.7991 38.5514 19.1877 37.8263C18.8753 37.9393 18.5437 38 18.2001 38C16.3346 38 14.8223 36.2091 14.8223 34C14.8223 33.958 14.8229 33.9162 14.824 33.8745C13.3663 33.4311 12.289 31.8645 12.289 30C12.289 29.5114 12.363 29.0433 12.4984 28.6105C11.8455 27.8024 11.4444 26.7067 11.4444 25.5C11.4444 24.2933 11.8455 23.1976 12.4984 22.3895C12.363 21.9567 12.289 21.4886 12.289 21C12.289 19.1355 13.3663 17.5689 14.824 17.1255C14.8229 17.0838 14.8223 17.042 14.8223 17C14.8223 14.7909 16.3346 13 18.2001 13C18.5437 13 18.8753 13.0607 19.1877 13.1737C19.7991 12.4486 20.6442 12 21.5779 12C22.2491 12 22.8747 12.2319 23.4005 12.6317C23.8297 12.2358 24.3694 12 24.9557 12C26.0602 12 26.9996 12.837 27.3462 14.0047C27.3935 14.0016 27.4411 14 27.489 14C28.8881 14 30.0223 15.3431 30.0223 17ZM23.7391 31.9258C23.8651 31.9047 23.99 31.8792 24.1136 31.8494C24.112 31.8994 24.1112 31.9496 24.1112 32C24.1112 32.1113 24.1151 32.2215 24.1226 32.3305L24.1021 32.342C23.99 32.1928 23.8686 32.0537 23.7391 31.9258Z" fill="#2E6930"/>
<path fill-rule="evenodd" clip-rule="evenodd" d="M134.841 33.5C134.841 34.3234 134.786 35.1309 134.682 35.9168H127.751L127.751 35.9167H118.931C119.348 38.6744 121.164 40.75 123.341 40.75C124.813 40.75 126.12 39.8009 126.941 38.3335H134.186C132.608 43.9652 128.348 48 123.341 48C116.99 48 111.841 41.5081 111.841 33.5C111.841 25.4919 116.99 19 123.341 19C129.692 19 134.841 25.4919 134.841 33.5ZM123.341 26.25C125.518 26.25 127.334 28.3256 127.751 31.0833H118.931C119.348 28.3256 121.164 26.25 123.341 26.25Z" fill="#2E6930"/>
<path fill-rule="evenodd" clip-rule="evenodd" d="M159.841 33.5C159.841 34.3234 159.786 35.1309 159.682 35.9168H152.751L152.751 35.9167H143.931C144.348 38.6744 146.164 40.75 148.341 40.75C149.813 40.75 151.12 39.8009 151.941 38.3335H159.186C157.608 43.9652 153.348 48 148.341 48C141.99 48 136.841 41.5081 136.841 33.5C136.841 25.4919 141.99 19 148.341 19C154.692 19 159.841 25.4919 159.841 33.5ZM148.341 26.25C150.518 26.25 152.334 28.3256 152.751 31.0833H143.931C144.348 28.3256 146.164 26.25 148.341 26.25Z" fill="#2E6930"/>
<path fill-rule="evenodd" clip-rule="evenodd" d="M206 2.59814C204.895 2.59814 204 3.49357 204 4.59814V6.17388C204 7.27845 204.895 8.17388 206 8.17388H209.742L214.413 25.6113L209.836 32.8197C208.568 34.817 210.003 37.4278 212.368 37.4278H239.079C241.445 37.4278 242.88 34.817 241.612 32.8197L241.059 31.9485V32.0124H236.962L236.962 32.0125H217.041L218.95 29.0824H234.151C234.544 29.0824 234.901 28.8522 235.063 28.494L242.974 10.9789C243.272 10.317 242.788 9.56729 242.062 9.56729H215.44L214.222 5.02061V4.59814C214.222 3.49357 213.327 2.59814 212.222 2.59814H206ZM230.777 24.2043L234.666 14.4468H225.777L221.888 24.2043H230.777Z" fill="#2E6930"/>
<ellipse cx="215.5" cy="44.4162" rx="3.83332" ry="4.1818" fill="#2E6930"/>
<ellipse cx="234.667" cy="44.4162" rx="3.83332" ry="4.1818" fill="#2E6930"/>
</svg>
